<svg width="17" height="16" viewBox="0 0 17 16" fill="none" xmlns="http://www.w3.org/2000/svg">
<path d="M16.0938 12.8505H4.6875C4.60156 12.8505 4.53125 12.9209 4.53125 13.0069V14.1022C4.53125 14.1883 4.60156 14.2587 4.6875 14.2587H16.0938C16.1797 14.2587 16.25 14.1883 16.25 14.1022V13.0069C16.25 12.9209 16.1797 12.8505 16.0938 12.8505ZM16.0938 1.74107H4.6875C4.60156 1.74107 4.53125 1.81148 4.53125 1.89754V2.99283C4.53125 3.07889 4.60156 3.1493 4.6875 3.1493H16.0938C16.1797 3.1493 16.25 3.07889 16.25 2.99283V1.89754C16.25 1.81148 16.1797 1.74107 16.0938 1.74107ZM16.0938 7.29577H4.6875C4.60156 7.29577 4.53125 7.36618 4.53125 7.45224V8.54753C4.53125 8.63359 4.60156 8.704 4.6875 8.704H16.0938C16.1797 8.704 16.25 8.63359 16.25 8.54753V7.45224C16.25 7.36618 16.1797 7.29577 16.0938 7.29577ZM2.34375 11.9116H0.078125C0.0351562 11.9116 0 11.9468 0 11.9899V12.6549C0 12.6979 0.0351562 12.7331 0.078125 12.7331H1.49219V13.1341H0.794922C0.751953 13.1341 0.716797 13.1693 0.716797 13.2123V13.8773C0.716797 13.9203 0.751953 13.9555 0.794922 13.9555H1.49219V14.3761H0.078125C0.0351562 14.3761 0 14.4113 0 14.4543V15.1193C0 15.1623 0.0351562 15.1975 0.078125 15.1975H2.34375C2.38672 15.1975 2.42188 15.1623 2.42188 15.1193V11.9899C2.42188 11.9468 2.38672 11.9116 2.34375 11.9116ZM0.078125 1.66283H0.820312V4.00989C0.820312 4.05292 0.855469 4.08812 0.898438 4.08812H1.67969C1.72266 4.08812 1.75781 4.05292 1.75781 4.00989V0.958716C1.75781 0.872658 1.6875 0.802246 1.60156 0.802246H0.078125C0.0351562 0.802246 0 0.837452 0 0.880481V1.5846C0 1.62763 0.0351562 1.66283 0.078125 1.66283ZM2.34375 6.35695H0.078125C0.0351562 6.35695 0 6.39215 0 6.43518V7.1393C0 7.18233 0.0351562 7.21753 0.078125 7.21753H1.41406L0.0410156 8.73725C0.0151185 8.76638 0.000558905 8.80387 0 8.84287V9.56459C0 9.60762 0.0351562 9.64282 0.078125 9.64282H2.34375C2.38672 9.64282 2.42188 9.60762 2.42188 9.56459V8.86047C2.42188 8.81744 2.38672 8.78224 2.34375 8.78224H1.00781L2.38086 7.26252C2.40676 7.23339 2.42132 7.1959 2.42188 7.1569V6.43518C2.42188 6.39215 2.38672 6.35695 2.34375 6.35695Z" fill="black"/>
</svg>
