<svg width="21" height="20" viewBox="0 0 21 20" fill="none" xmlns="http://www.w3.org/2000/svg">
<path fill-rule="evenodd" clip-rule="evenodd" d="M8.1497 6.969H11.8637V8.819C12.3987 7.755 13.7707 6.799 15.8317 6.799C19.7827 6.799 20.7207 8.917 20.7207 12.803V20H16.7207V13.688C16.7207 11.475 16.1857 10.227 14.8237 10.227C12.9347 10.227 12.1497 11.572 12.1497 13.687V20H8.1497V6.969ZM1.2907 19.83H5.2907V6.799H1.2907V19.83ZM5.8637 2.55C5.86385 2.88528 5.79736 3.21724 5.66809 3.52659C5.53882 3.83594 5.34936 4.11651 5.1107 4.352C4.6271 4.83262 3.97251 5.10165 3.2907 5.1C2.61009 5.09954 1.95701 4.8312 1.4727 4.353C1.23491 4.11671 1.04609 3.83582 0.917047 3.52643C0.788005 3.21704 0.721282 2.88522 0.720703 2.55C0.720703 1.873 0.990703 1.225 1.4737 0.747C1.95759 0.268158 2.61094 -0.000299211 3.2917 2.50265e-07C3.9737 2.50265e-07 4.6277 0.269 5.1107 0.747C5.5927 1.225 5.8637 1.873 5.8637 2.55Z" fill="black"/>
</svg>
