<svg width="21" height="22" viewBox="0 0 21 22" fill="none" xmlns="http://www.w3.org/2000/svg">
<g clip-path="url(#clip0_246_1409)">
<path fill-rule="evenodd" clip-rule="evenodd" d="M14.246 8.56682C14.3071 8.62778 14.3556 8.7002 14.3887 8.77993C14.4217 8.85966 14.4388 8.94513 14.4388 9.03145C14.4388 9.11777 14.4217 9.20324 14.3887 9.28297C14.3556 9.36269 14.3071 9.43511 14.246 9.49607L10.3085 13.4336C10.2475 13.4947 10.1751 13.5432 10.0954 13.5763C10.0156 13.6093 9.93017 13.6264 9.84385 13.6264C9.75753 13.6264 9.67206 13.6093 9.59233 13.5763C9.5126 13.5432 9.44018 13.4947 9.37922 13.4336L7.41047 11.4648C7.34946 11.4038 7.30106 11.3314 7.26803 11.2516C7.23501 11.1719 7.21802 11.0865 7.21802 11.0002C7.21802 10.9139 7.23501 10.8285 7.26803 10.7487C7.30106 10.669 7.34946 10.5966 7.41047 10.5356C7.47149 10.4746 7.54392 10.4262 7.62364 10.3931C7.70336 10.3601 7.78881 10.3431 7.8751 10.3431C7.96139 10.3431 8.04683 10.3601 8.12655 10.3931C8.20627 10.4262 8.27871 10.4746 8.33972 10.5356L9.84385 12.041L13.3167 8.56682C13.3777 8.50571 13.4501 8.45722 13.5298 8.42414C13.6096 8.39105 13.695 8.37402 13.7813 8.37402C13.8677 8.37402 13.9531 8.39105 14.0329 8.42414C14.1126 8.45722 14.185 8.50571 14.246 8.56682Z" fill="black"/>
<path d="M3.9375 0.5H17.0625C17.7587 0.5 18.4264 0.776562 18.9187 1.26884C19.4109 1.76113 19.6875 2.42881 19.6875 3.125V18.875C19.6875 19.5712 19.4109 20.2389 18.9187 20.7312C18.4264 21.2234 17.7587 21.5 17.0625 21.5H3.9375C3.24131 21.5 2.57363 21.2234 2.08134 20.7312C1.58906 20.2389 1.3125 19.5712 1.3125 18.875V17.5625H2.625V18.875C2.625 19.2231 2.76328 19.5569 3.00942 19.8031C3.25556 20.0492 3.5894 20.1875 3.9375 20.1875H17.0625C17.4106 20.1875 17.7444 20.0492 17.9906 19.8031C18.2367 19.5569 18.375 19.2231 18.375 18.875V3.125C18.375 2.7769 18.2367 2.44306 17.9906 2.19692C17.7444 1.95078 17.4106 1.8125 17.0625 1.8125H3.9375C3.5894 1.8125 3.25556 1.95078 3.00942 2.19692C2.76328 2.44306 2.625 2.7769 2.625 3.125V4.4375H1.3125V3.125C1.3125 2.42881 1.58906 1.76113 2.08134 1.26884C2.57363 0.776562 3.24131 0.5 3.9375 0.5V0.5Z" fill="black"/>
<path d="M1.3125 7.0625V6.40625C1.3125 6.2322 1.38164 6.06528 1.50471 5.94221C1.62778 5.81914 1.7947 5.75 1.96875 5.75C2.1428 5.75 2.30972 5.81914 2.43279 5.94221C2.55586 6.06528 2.625 6.2322 2.625 6.40625V7.0625H3.28125C3.4553 7.0625 3.62222 7.13164 3.74529 7.25471C3.86836 7.37778 3.9375 7.5447 3.9375 7.71875C3.9375 7.8928 3.86836 8.05972 3.74529 8.18279C3.62222 8.30586 3.4553 8.375 3.28125 8.375H0.65625C0.482202 8.375 0.315282 8.30586 0.192211 8.18279C0.0691404 8.05972 0 7.8928 0 7.71875C0 7.5447 0.0691404 7.37778 0.192211 7.25471C0.315282 7.13164 0.482202 7.0625 0.65625 7.0625H1.3125ZM1.3125 11V10.3438C1.3125 10.1697 1.38164 10.0028 1.50471 9.87971C1.62778 9.75664 1.7947 9.6875 1.96875 9.6875C2.1428 9.6875 2.30972 9.75664 2.43279 9.87971C2.55586 10.0028 2.625 10.1697 2.625 10.3438V11H3.28125C3.4553 11 3.62222 11.0691 3.74529 11.1922C3.86836 11.3153 3.9375 11.4822 3.9375 11.6562C3.9375 11.8303 3.86836 11.9972 3.74529 12.1203C3.62222 12.2434 3.4553 12.3125 3.28125 12.3125H0.65625C0.482202 12.3125 0.315282 12.2434 0.192211 12.1203C0.0691404 11.9972 0 11.8303 0 11.6562C0 11.4822 0.0691404 11.3153 0.192211 11.1922C0.315282 11.0691 0.482202 11 0.65625 11H1.3125ZM1.3125 14.9375V14.2812C1.3125 14.1072 1.38164 13.9403 1.50471 13.8172C1.62778 13.6941 1.7947 13.625 1.96875 13.625C2.1428 13.625 2.30972 13.6941 2.43279 13.8172C2.55586 13.9403 2.625 14.1072 2.625 14.2812V14.9375H3.28125C3.4553 14.9375 3.62222 15.0066 3.74529 15.1297C3.86836 15.2528 3.9375 15.4197 3.9375 15.5938C3.9375 15.7678 3.86836 15.9347 3.74529 16.0578C3.62222 16.1809 3.4553 16.25 3.28125 16.25H0.65625C0.482202 16.25 0.315282 16.1809 0.192211 16.0578C0.0691404 15.9347 0 15.7678 0 15.5938C0 15.4197 0.0691404 15.2528 0.192211 15.1297C0.315282 15.0066 0.482202 14.9375 0.65625 14.9375H1.3125Z" fill="black"/>
</g>
<defs>
<clipPath id="clip0_246_1409">
<rect width="21" height="21" fill="white" transform="translate(0 0.5)"/>
</clipPath>
</defs>
</svg>
