<svg width="13" height="14" viewBox="0 0 13 14" fill="none" xmlns="http://www.w3.org/2000/svg">
<path d="M2.39237 9.08191C2.98914 9.0801 3.56333 8.84812 4.00052 8.43219L8.27166 10.9312C8.12855 11.5038 8.19164 12.11 8.44936 12.6388C8.70709 13.1677 9.14222 13.5838 9.6751 13.811C10.208 14.0382 10.8029 14.0613 11.3511 13.8761C11.8992 13.6908 12.3639 13.3096 12.66 12.8023C12.9561 12.2949 13.0638 11.6953 12.9634 11.1133C12.8631 10.5312 12.5613 10.0057 12.1134 9.6328C11.6656 9.25993 11.1015 9.0647 10.5246 9.08285C9.94763 9.101 9.39635 9.33132 8.97168 9.73163L4.70055 7.23266C4.74558 7.058 4.77015 6.87706 4.77424 6.69611L8.97032 4.24045C9.37436 4.61685 9.89252 4.83952 10.4379 4.87111C10.9833 4.9027 11.5226 4.74128 11.9655 4.41393C12.4085 4.08658 12.728 3.61323 12.8704 3.07327C13.0129 2.53332 12.9697 1.95962 12.748 1.44842C12.5264 0.937227 12.1398 0.519632 11.6531 0.265698C11.1664 0.0117641 10.6092 -0.0630589 10.075 0.0537813C9.54085 0.170622 9.06216 0.472017 8.71927 0.907403C8.37638 1.34279 8.19015 1.88568 8.19183 2.44499C8.19456 2.64619 8.22117 2.8467 8.27166 3.04091L4.39352 5.30935C4.16863 4.95309 3.85708 4.66287 3.4895 4.46721C3.12192 4.27154 2.71095 4.17716 2.29697 4.19333C1.88299 4.2095 1.48023 4.33568 1.12828 4.55945C0.776331 4.78323 0.487289 5.09691 0.289556 5.46968C0.0918224 5.84244 -0.00779992 6.26147 0.000476712 6.68559C0.00875334 7.1097 0.124644 7.52432 0.336763 7.8887C0.548882 8.25308 0.84993 8.55469 1.21033 8.76389C1.57073 8.97309 1.97809 9.08269 2.39237 9.08191Z" fill="#5B5B5B"/>
</svg>
