<svg width="26" height="20" viewBox="0 0 26 20" fill="none" xmlns="http://www.w3.org/2000/svg">
<path d="M25.3229 2.37236C24.4182 2.77326 23.4462 3.04414 22.4245 3.16658C23.4788 2.53575 24.2675 1.5429 24.6435 0.373289C23.653 0.961624 22.569 1.37575 21.4385 1.59766C20.6783 0.78596 19.6714 0.247955 18.5741 0.0671694C17.4767 -0.113617 16.3504 0.0729309 15.37 0.59785C14.3896 1.12277 13.6099 1.95669 13.152 2.97014C12.6941 3.98359 12.5836 5.11988 12.8376 6.20257C10.8306 6.1018 8.86721 5.58015 7.07487 4.67147C5.28252 3.76279 3.70127 2.48739 2.43373 0.928046C2.00033 1.67567 1.75112 2.54248 1.75112 3.46563C1.75064 4.29667 1.95529 5.11499 2.34692 5.84798C2.73855 6.58096 3.30505 7.20594 3.99615 7.66748C3.19466 7.64198 2.41084 7.42541 1.70995 7.03579V7.1008C1.70987 8.26638 2.11305 9.39609 2.85108 10.2982C3.58912 11.2004 4.61654 11.8194 5.75903 12.0503C5.0155 12.2515 4.23598 12.2811 3.47932 12.137C3.80166 13.1399 4.42955 14.0169 5.27509 14.6452C6.12064 15.2735 7.14149 15.6217 8.19476 15.641C6.40678 17.0446 4.19865 17.806 1.92557 17.8026C1.52291 17.8027 1.1206 17.7792 0.720703 17.7322C3.02801 19.2157 5.71389 20.003 8.45697 20C17.7426 20 22.8189 12.3092 22.8189 5.63915C22.8189 5.42245 22.8135 5.20358 22.8037 4.98687C23.7911 4.27281 24.6434 3.38858 25.3207 2.37562L25.3229 2.37236Z" fill="black"/>
</svg>
