<svg width="21" height="20" viewBox="0 0 21 20" fill="none" xmlns="http://www.w3.org/2000/svg">
<path d="M11.2117 0.440169C11.1348 0.284382 11.0083 0.158269 10.8521 0.0816118C10.4604 -0.111267 9.98432 0.0494654 9.78844 0.440169M11.2117 0.440169L6.97423 6.1301L9.78844 0.440169M11.2117 0.440169L14.0259 6.1301L11.2117 0.440169ZM9.78844 0.440169L10.4607 0.772669L10.4593 0.775544C10.4648 0.764882 10.4735 0.757095 10.4865 0.752719C10.4997 0.748263 10.5108 0.749522 10.5209 0.754481L10.5217 0.754908C10.5296 0.758763 10.5356 0.764957 10.5391 0.772017L10.5394 0.772669L13.3536 6.4626L13.5283 6.81582L13.9183 6.87235L20.2113 7.78447C20.2115 7.78449 20.2117 7.78452 20.2118 7.78455C20.2267 7.78687 20.2368 7.79381 20.2434 7.80271C20.2468 7.80723 20.2485 7.81133 20.2493 7.8143C20.2499 7.81669 20.2504 7.81994 20.2495 7.82554L20.2495 7.82553L20.2483 7.83386C20.2474 7.84005 20.2443 7.84799 20.2362 7.85605C20.2361 7.85615 20.236 7.85625 20.2359 7.85636L15.6825 12.2838L15.3992 12.5593L15.4662 12.9487L16.5423 19.2024L16.5424 19.203C16.5455 19.2213 16.5337 19.244 16.5072 19.2486L16.5061 19.2488C16.5016 19.2495 16.4965 19.2496 16.4917 19.2488C16.4868 19.2481 16.4838 19.2468 16.4826 19.2461L16.4792 19.2444L10.8483 16.2918L10.5001 16.1092L10.1518 16.2918L4.52087 19.2444L4.51971 19.245C4.5126 19.2487 4.50441 19.2505 4.49613 19.2499C4.48786 19.2493 4.4801 19.2464 4.47371 19.2418L4.03374 19.8492L4.4737 19.2418C4.46734 19.2372 4.46265 19.2311 4.45992 19.2244C4.45719 19.2177 4.45643 19.2104 4.45765 19.2034L4.45782 19.2024L5.53391 12.9487L5.60092 12.5593L5.31761 12.2838L0.762815 7.85501L0.762767 7.85496C0.754496 7.84692 0.750145 7.83637 0.750004 7.82574C0.749868 7.81552 0.753633 7.80528 0.761071 7.79719M9.78844 0.440169L10.4589 0.776303L7.6465 6.4626L7.4718 6.81582L7.08182 6.87235L0.786424 7.78481L0.784628 7.78507C0.777259 7.78612 0.768954 7.78958 0.761071 7.79719M0.761071 7.79719C0.761358 7.79688 0.761651 7.79657 0.761949 7.79627L0.225098 7.27254L0.76005 7.79821C0.76039 7.79786 0.76073 7.79752 0.761071 7.79719Z" stroke="#5B5B5B" stroke-width="1.5"/>
</svg>
