<svg width="21" height="20" viewBox="0 0 21 20" fill="none" xmlns="http://www.w3.org/2000/svg">
<path d="M12.6868 15.2995V13.2552C12.6868 12.8212 12.561 12.6042 12.3092 12.6042C12.1617 12.6042 12.0184 12.6736 11.8796 12.8125V15.7292C12.0184 15.8681 12.1617 15.9375 12.3092 15.9375C12.561 15.9375 12.6868 15.7248 12.6868 15.2995ZM15.0827 13.7109H15.9421V13.2682C15.9421 12.8255 15.7988 12.6042 15.5124 12.6042C15.2259 12.6042 15.0827 12.8255 15.0827 13.2682V13.7109ZM7.64779 10.2474V11.1589H6.60612V16.6667H5.64258V11.1589H4.62695V10.2474H7.64779ZM10.265 11.888V16.6667H9.39258V16.1458C9.05404 16.5365 8.72418 16.7318 8.40299 16.7318C8.11654 16.7318 7.93424 16.6102 7.85612 16.3672C7.80404 16.2196 7.77799 15.9852 7.77799 15.6641V11.888H8.63737V15.4036C8.63737 15.612 8.64171 15.7248 8.65039 15.7422C8.65907 15.8724 8.72418 15.9375 8.8457 15.9375C9.01931 15.9375 9.20161 15.803 9.39258 15.5339V11.888H10.265ZM13.5462 13.3333V15.2344C13.5462 15.6858 13.5158 16.0026 13.4551 16.1849C13.3509 16.5495 13.1209 16.7318 12.765 16.7318C12.4612 16.7318 12.166 16.5538 11.8796 16.1979V16.6667H11.0072V10.2474H11.8796V12.3438C12.1573 11.9965 12.4525 11.8229 12.765 11.8229C13.1209 11.8229 13.3509 12.0052 13.4551 12.3698C13.5158 12.5521 13.5462 12.8733 13.5462 13.3333ZM16.8145 15.013V15.1302C16.8145 15.3819 16.8058 15.5686 16.7884 15.6901C16.7624 15.8811 16.6973 16.0547 16.5931 16.2109C16.3587 16.5582 16.0115 16.7318 15.5514 16.7318C15.1 16.7318 14.7485 16.5668 14.4967 16.237C14.3145 16.0026 14.2233 15.6293 14.2233 15.1172V13.4375C14.2233 12.9253 14.3101 12.5521 14.4837 12.3177C14.7355 11.9878 15.0827 11.8229 15.5254 11.8229C15.9681 11.8229 16.3066 11.9878 16.541 12.3177C16.7233 12.5694 16.8145 12.9427 16.8145 13.4375V14.4271H15.0827V15.2734C15.0827 15.7161 15.2303 15.9375 15.5254 15.9375C15.7337 15.9375 15.8639 15.8247 15.916 15.599C15.916 15.5903 15.9182 15.5599 15.9225 15.5078C15.9269 15.4557 15.929 15.3841 15.929 15.293V15.013H16.8145ZM10.9421 4.28385V6.3151C10.9421 6.75781 10.8032 6.97917 10.5254 6.97917C10.2476 6.97917 10.1087 6.75781 10.1087 6.3151V4.28385C10.1087 3.83247 10.2476 3.60677 10.5254 3.60677C10.8032 3.60677 10.9421 3.83247 10.9421 4.28385ZM17.8822 13.5677C17.8822 12.0312 17.7997 10.9028 17.6348 10.1823C17.548 9.80035 17.3613 9.48134 17.0749 9.22526C16.7884 8.96918 16.4585 8.81944 16.0853 8.77604C14.9047 8.64583 13.1165 8.58073 10.7207 8.58073C8.33355 8.58073 6.5497 8.64583 5.36914 8.77604C4.9872 8.81944 4.65516 8.96918 4.37305 9.22526C4.09093 9.48134 3.90647 9.80035 3.81966 10.1823C3.64605 10.9375 3.55924 12.066 3.55924 13.5677C3.55924 15.0955 3.64605 16.224 3.81966 16.9531C3.90647 17.3264 4.09093 17.6432 4.37305 17.9036C4.65516 18.1641 4.98286 18.316 5.35612 18.3594C6.54536 18.4896 8.33355 18.5547 10.7207 18.5547C13.1079 18.5547 14.896 18.4896 16.0853 18.3594C16.4585 18.316 16.7862 18.1641 17.0684 17.9036C17.3505 17.6432 17.5349 17.3264 17.6217 16.9531C17.7954 16.224 17.8822 15.0955 17.8822 13.5677ZM8.05143 5.09115L9.22331 1.23698H8.24674L7.58268 3.77604L6.89258 1.23698H5.87695C5.93772 1.43663 6.03754 1.73611 6.17643 2.13542L6.48893 3.03385C6.79275 3.92795 6.9924 4.61372 7.08789 5.09115V7.70833H8.05143V5.09115ZM11.8145 6.14583V4.45312C11.8145 3.94965 11.7233 3.57205 11.541 3.32031C11.2893 2.99045 10.9507 2.82552 10.5254 2.82552C10.0827 2.82552 9.74414 2.99045 9.50977 3.32031C9.32747 3.57205 9.23633 3.94965 9.23633 4.45312V6.14583C9.23633 6.64931 9.32747 7.02691 9.50977 7.27865C9.74414 7.60851 10.0827 7.77344 10.5254 7.77344C10.9507 7.77344 11.2893 7.60851 11.541 7.27865C11.7233 7.04427 11.8145 6.66667 11.8145 6.14583ZM14.1712 7.70833H15.0436V2.89062H14.1712V6.57552C13.9803 6.84462 13.798 6.97917 13.6243 6.97917C13.4941 6.97917 13.4247 6.90972 13.416 6.77083C13.4073 6.75347 13.403 6.64062 13.403 6.43229V2.89062H12.5306V6.70573C12.5306 7.02691 12.5566 7.26562 12.6087 7.42188C12.7042 7.65625 12.8908 7.77344 13.1686 7.77344C13.4811 7.77344 13.8153 7.57812 14.1712 7.1875V7.70833ZM20.7207 3.75V16.25C20.7207 17.283 20.3539 18.1662 19.6204 18.8997C18.8869 19.6332 18.0037 20 16.9707 20H4.4707C3.43772 20 2.55447 19.6332 1.82096 18.8997C1.08746 18.1662 0.720703 17.283 0.720703 16.25V3.75C0.720703 2.71701 1.08746 1.83377 1.82096 1.10026C2.55447 0.366753 3.43772 0 4.4707 0H16.9707C18.0037 0 18.8869 0.366753 19.6204 1.10026C20.3539 1.83377 20.7207 2.71701 20.7207 3.75Z" fill="black"/>
</svg>
